<?xml version="1.0" encoding="utf-8" ?><svg xmlns="http://www.w3.org/2000/svg" xmlns:xlink="http://www.w3.org/1999/xlink" width="182" height="189" viewBox="0 0 182 189"><clipPath id="cl_5"><rect width="182" height="189"/></clipPath><g clip-path="url(#cl_5)"><path fill="#A8D08D" transform="translate(-156 -100)" d="M237.337 113.791C242.81 113.655 245.837 115.874 248.521 120.401C251.153 124.842 248.696 150.692 249.889 152.667C269.741 153.419 259.837 140.062 267.549 129.894C270.049 126.598 278.058 126.78 282.231 126.744C283.888 123.696 285.9 121 289.235 119.699C295.306 117.331 301.574 120.571 303.466 126.653C304.337 129.384 304.039 132.355 302.644 134.859C301.224 137.4 298.761 139.416 295.946 140.199C293.171 140.956 290.206 140.527 287.76 139.012C284.743 137.179 283.027 134.561 282.205 131.199C280.069 131.352 274.411 131.03 272.721 131.823C265.438 135.242 271.007 148.571 263.062 154.081C259.201 156.76 253.81 157.277 249.597 156.795C249.812 161.037 249.775 167.675 249.637 171.936C254.785 171.371 260.889 172.146 266.084 171.704C274.323 171.002 271.457 161.867 276.568 157.262C281.66 152.675 290.472 153.635 296.952 153.824C298.232 149.874 301.345 146.484 305.49 145.531C308.099 144.949 310.833 145.42 313.097 146.841C318.145 150.014 320.182 156.886 316.694 162.001C315.027 164.465 312.413 166.128 309.474 166.594C306.561 167.059 303.583 166.337 301.208 164.588C298.93 162.893 297.557 160.744 297.107 157.955C292.804 158.192 288.787 157.765 284.366 158.374C275.474 159.328 278.818 168.972 273.033 173.617C268.402 177.335 262.931 176.23 257.402 176.329C254.883 176.374 252.138 176.315 249.634 176.112C249.907 179.472 249.39 183.824 249.75 186.963C252.393 187.254 260.516 187.004 263.767 187.062C279.106 187.261 294.448 187.241 309.786 187C311.964 180.789 318.642 176.514 324.879 179.831C327.505 181.222 329.455 183.617 330.288 186.47C334.164 199.927 313.077 206.227 309.743 191.478L269.583 191.586C263.969 191.608 255.078 191.951 249.717 191.621C249.828 194.899 249.44 199.331 249.747 202.45C250.063 202.832 250.084 202.952 250.649 202.924C257.096 202.614 264.429 201.635 270.417 204.61C273.917 206.349 275.348 209.727 276.443 213.304C279.457 222.742 282.773 221.518 291.731 221.347C293.183 221.319 294.726 221.254 296.186 221.206C301.34 205.495 322.107 213.462 316.554 227.705C314.611 232.69 307.472 235.737 302.618 233.425C299.46 231.92 297.274 228.927 296.053 225.674C292.325 225.864 285.729 225.829 282.273 225.503C272.667 224.596 273.932 215.339 270.001 209.954C267.057 205.921 255.267 207.545 249.981 207.024L249.652 206.99C249.807 209.645 249.801 216.485 249.592 219.025C251.181 218.999 252.77 218.999 254.358 219.027C273.844 219.481 264.338 236.305 272.657 245.055C275.945 245.647 278.803 245.536 282.126 245.523C282.707 243.198 283.494 241.945 285.214 240.214C287.884 237.492 291.965 236.653 295.581 237.575C305.031 239.984 306.286 253.248 297.615 257.67C294.626 259.195 291.604 259 288.574 257.984C284.636 256.664 283.586 253.845 282.045 250.475C281.274 249.931 277.443 250.106 276.171 250.008C261.517 248.886 266.988 233.735 261.417 225.61C259.582 222.934 253.161 223.439 249.694 223.263C249.803 226.322 249.668 229.598 249.711 232.662C249.868 240.918 249.505 247.304 244.137 254.015C236.461 263.611 221.489 266.103 211.682 258.368C210.612 257.524 207.746 254.693 206.542 254.271C202.952 253.013 199.399 252.331 196.476 249.621C191.873 245.519 190.824 240.677 190.459 234.791L190.074 234.659C181.461 231.671 176.341 223.225 179.529 214.332C171.017 206.689 168.312 200.689 174.982 190.438C170.45 183.858 172.211 178.447 176.361 172.399C172.206 167.821 171.004 161.739 173.201 155.868C174.82 151.54 178.857 148.701 183.024 147.014C180.925 138.788 185.381 131.246 193.28 128.512C196.379 127.44 198.705 127.267 201.961 127.277C205.409 115.88 218.473 109.905 228.398 118.054C231.445 115.757 233.64 114.552 237.337 113.791ZM182.346 172.508C176.632 181.344 173.962 180.886 180.808 190.66C172.111 202.146 174.852 203.713 183.658 211.365C185.178 212.686 183.54 217.705 183.312 219.266C182.726 221.398 185.236 227.354 187.093 228.187C196.123 231.745 194.846 228.664 195.735 238.499C196.848 250.819 215.896 253.454 219.547 240.74C220.408 237.741 219.714 231.802 222.382 231.071C224.144 231.248 225.801 232.859 227.272 233.718C229.746 235.162 238.751 233.491 237.324 238.334C236.284 241.867 226.788 237.411 225.159 238.624C225.122 238.835 225.016 239.364 225.007 239.556C222.715 247.756 219.789 250.159 212.225 253.614C217.272 257.335 221.332 259.444 227.822 258.443C233.275 257.607 238.167 254.623 241.406 250.156C246.279 243.297 245.166 235.337 245.253 227.362C245.278 225.043 245.378 220.363 245.108 218.269C245.488 218.771 229.646 214.475 228.451 210.646C228.123 209.594 220.197 202.548 226.381 201.289C227.655 201.201 232.157 209.593 234.488 210.13C238.413 212.54 240.766 212.838 245.308 213.321L245.227 168.276C245.221 161.831 244.877 149.462 245.423 143.44C238.739 146.767 238.43 149.111 235.533 155.478C235.351 155.878 233.809 156.034 233.364 155.825C231.09 154.756 232.601 150.735 233.349 148.988C235.101 144.864 238.435 141.615 242.603 139.971C243.49 139.63 244.441 139.319 245.346 139.021C245.102 132.103 247.687 119.224 238.286 118.328C234.408 118.776 232.248 122.485 228.96 122.852C224.333 123.369 223.344 116.503 215.324 119.076C213.092 119.792 211.229 121.14 209.759 122.963C208.136 124.975 206.475 130.225 204.889 131.386C204.274 131.836 203.515 131.972 202.775 132.066C197.168 132.775 193.362 131.078 189.223 136.368C185.712 140.854 188.817 147.212 187.355 149.682C185.925 152.097 174.909 151.981 176.678 163.091C177.333 167.207 179.96 169.396 182.346 172.508ZM318.981 183.286C316.776 183.675 314.953 185.226 314.216 187.34C313.478 189.454 313.941 191.802 315.425 193.478C316.909 195.155 319.184 195.898 321.372 195.422C324.664 194.706 326.777 191.487 326.126 188.182C325.475 184.877 322.299 182.7 318.981 183.286ZM306.519 149.936C304.315 150.334 302.494 151.885 301.751 153.998C301.007 156.112 301.457 158.461 302.927 160.151C304.397 161.842 306.662 162.612 308.858 162.168C312.205 161.492 314.383 158.248 313.742 154.895C313.101 151.541 309.879 149.33 306.519 149.936ZM294.122 254.208C296.358 253.686 298.14 252.001 298.785 249.797C299.43 247.593 298.838 245.213 297.236 243.567C295.634 241.922 293.271 241.267 291.05 241.853C287.685 242.741 285.657 246.166 286.496 249.544C287.336 252.922 290.732 254.999 294.122 254.208ZM292.61 123.311C289.087 123.582 286.454 126.662 286.734 130.185C287.013 133.707 290.1 136.333 293.621 136.045C297.131 135.758 299.746 132.684 299.468 129.174C299.189 125.663 296.121 123.041 292.61 123.311ZM305.564 216.901C303.295 217.369 301.456 219.024 300.751 221.231C300.046 223.437 300.586 225.852 302.162 227.549C303.739 229.245 306.108 229.961 308.36 229.419C311.765 228.601 313.885 225.203 313.122 221.784C312.358 218.366 308.994 216.192 305.564 216.901Z"/><path fill="#A8D08D" transform="translate(-156 -100)" d="M204.052 195.908C205.202 195.843 205.924 196.115 206.842 196.736C208.682 199.553 203.811 205.066 202.123 207.202C202.19 207.893 204.731 209.739 205.911 211.676C208.68 216.05 210.48 221.721 209.612 226.916C209.387 228.264 207.683 230.975 205.889 230.174C205.418 229.426 205.454 229.396 205.292 228.561C204.851 222.699 205.031 217.477 200.807 212.943C198.711 210.693 191.72 208.752 191.512 205.937C192.602 203.295 197.397 204.483 199.521 203.048C202.162 201.265 201.986 198.065 204.052 195.908Z"/><path fill="#A8D08D" transform="translate(-156 -100)" d="M215.958 155.467C229.44 154.583 237.142 180.103 217.558 188.086C214.331 189.055 213.233 184.94 217.53 183.338C220.187 182.348 222.478 179.993 223.685 177.348C224.709 175.111 225.12 172.64 224.874 170.192C223.935 161.048 216.101 160.647 214.951 157.524C215.02 156.494 215.281 156.327 215.958 155.467Z"/><path fill="#A8D08D" transform="translate(-156 -100)" d="M216.845 134.346C218.466 134.079 221.894 134.334 221.879 136.569C220.347 139.394 215.039 138.641 211.855 140.132C204.652 143.505 203.161 148.718 201.587 155.626C201.069 156.189 199.543 157.402 198.859 156.603C195.695 152.908 199.328 145.606 201.825 142.413C205.753 137.39 210.616 135.071 216.845 134.346Z"/><path fill="#A8D08D" transform="translate(-156 -100)" d="M209.682 169.08C210.546 169.113 212.233 169.614 212.159 170.729C211.994 173.755 208.374 174.087 205.996 174.717C198.344 176.744 199.468 185.073 196.288 189.481C192.044 188.931 192.968 185.037 194.086 182.014C196.796 174.689 201.867 170.138 209.682 169.08Z"/></g></svg>